<svg xmlns="http://www.w3.org/2000/svg" width="35" height="27" viewBox="0 0 35 27"><path d="M31.288,32h-.01c-1.463.007-8.8.532-13.342,2.9a1.044,1.044,0,0,1-.874,0C12.517,32.532,5.184,32.007,3.722,32h-.01A3.641,3.641,0,0,0,0,35.556V53.438a3.622,3.622,0,0,0,3.515,3.55c2.113.106,7.415.5,11.053,1.83a2.839,2.839,0,0,0,.987.182h3.889a2.853,2.853,0,0,0,.988-.182c3.638-1.333,8.94-1.724,11.054-1.83A3.621,3.621,0,0,0,35,53.438V35.556A3.64,3.64,0,0,0,31.288,32ZM16.528,56.167a.922.922,0,0,1-.927.912.944.944,0,0,1-.328-.059c-3.795-1.4-9.053-1.828-11.661-1.959a1.689,1.689,0,0,1-1.667-1.623V35.556a1.7,1.7,0,0,1,1.768-1.627c1.172.006,7.441.445,11.674,2.308a1.849,1.849,0,0,1,1.134,1.678l.008,6.046Zm16.528-2.73a1.689,1.689,0,0,1-1.668,1.623c-2.608.131-7.867.56-11.661,1.959a.944.944,0,0,1-.328.059.922.922,0,0,1-.927-.912V43.961l.008-6.046a1.848,1.848,0,0,1,1.134-1.678c4.233-1.863,10.5-2.3,11.674-2.308a1.7,1.7,0,0,1,1.768,1.627V53.438Z" transform="translate(0 -32)"/></svg>