<svg xmlns="http://www.w3.org/2000/svg" width="27.499" height="27.508" viewBox="0 0 27.499 27.508">
    <defs>
        <style>.a{stroke:#000;stroke-width:0.5px;}</style>
    </defs>
    <g transform="translate(119.256 194.318)">
        <path class="a"
              d="M-98.306-191.278c0-.648-.006-1.273,0-1.9a.894.894,0,0,1,.751-.872.89.89,0,0,1,.97.542,1.292,1.292,0,0,1,.073.438c.008.59,0,1.18,0,1.8.334,0,.648,0,.962,0a10.878,10.878,0,0,1,1.447.033,2.446,2.446,0,0,1,2.09,2.484q0,5.974,0,11.948,0,3.575,0,7.149a2.478,2.478,0,0,1-2.6,2.59h-21.8a2.477,2.477,0,0,1-2.6-2.605q0-9.524,0-19.048a2.451,2.451,0,0,1,2.106-2.521,10.578,10.578,0,0,1,1.373-.032c.331,0,.662,0,1.021,0,0-.589,0-1.153,0-1.717a1.818,1.818,0,0,1,.018-.348.9.9,0,0,1,.968-.721.891.891,0,0,1,.809.87c.011.541,0,1.083,0,1.625,0,.089,0,.178,0,.28Zm-19.35,7.744v.277q0,6.8,0,13.6a1.135,1.135,0,0,0,1.254,1.253h21.8a1.136,1.136,0,0,0,1.25-1.257q0-6.8,0-13.6v-.273Zm24.3-1.374c0-1.35.016-2.674-.008-4a1.073,1.073,0,0,0-1.082-1.007c-.408-.009-.816,0-1.225,0h-.831c0,.674,0,1.314,0,1.954a.888.888,0,0,1-.9.91.888.888,0,0,1-.9-.9c-.006-.35,0-.7,0-1.05v-.893h-14.4c0,.667.008,1.316,0,1.964a.884.884,0,0,1-.9.881.885.885,0,0,1-.9-.882c-.009-.483,0-.966,0-1.45,0-.172,0-.344,0-.532-.665,0-1.3,0-1.929,0a1.123,1.123,0,0,0-1.221,1.231q0,1.762,0,3.524c0,.081.007.161.011.25Z"
              transform="translate(0 0)"/>
    </g>
</svg>