<svg xmlns="http://www.w3.org/2000/svg" width="35" height="27" viewBox="0 0 35 27">
    <g transform="translate(126.741 141.222)">
        <path d="M-99.66,92.454h-5.825q-9.287,0-18.574,0a5.551,5.551,0,0,1-.91-.043,1.973,1.973,0,0,1-1.7-1.807,19.047,19.047,0,0,1,.2-5.113,7.828,7.828,0,0,1,4.859-5.688,16.287,16.287,0,0,1,6.689-1.115,14.9,14.9,0,0,1,6.012,1.179,15.015,15.015,0,0,1,1.879,1.093.56.56,0,0,0,.535.089,15.2,15.2,0,0,1,10.009.174A6.791,6.791,0,0,1-91.9,86.814a17.032,17.032,0,0,1,.083,3.932,1.868,1.868,0,0,1-1.927,1.7C-95.714,92.462-97.687,92.454-99.66,92.454Zm-24.845-2.275h18.355c0-1.078.046-2.137-.01-3.189a5.508,5.508,0,0,0-2.934-4.723,9.014,9.014,0,0,0-2.467-.928,17.236,17.236,0,0,0-6.255-.232A9.4,9.4,0,0,0-122,82.581a5.449,5.449,0,0,0-2.246,3.177A21.467,21.467,0,0,0-124.505,90.179Zm30.453.007c0-.952.067-1.9-.024-2.824a5.275,5.275,0,0,0-.544-1.787,4.973,4.973,0,0,0-3.143-2.436,13.582,13.582,0,0,0-5.634-.479c-.574.056-1.142.181-1.738.278a9.787,9.787,0,0,1,1.251,5.726c-.008.5,0,1,0,1.522Z"
              transform="translate(0 -206.679)"/>
        <path d="M-44.01-141.221a6.712,6.712,0,0,1,6.732,6.783,6.712,6.712,0,0,1-6.745,6.766,6.8,6.8,0,0,1-6.824-6.732A6.774,6.774,0,0,1-44.01-141.221Zm-4.574,6.715a4.539,4.539,0,0,0,4.451,4.578,4.547,4.547,0,0,0,4.588-4.817,4.543,4.543,0,0,0-4.425-4.23A4.514,4.514,0,0,0-48.584-134.506Z"
              transform="translate(-71.023)"/>
        <path d="M183.092-86.183a6.027,6.027,0,0,1,5.95,5.991,5.98,5.98,0,0,1-5.984,5.952,5.985,5.985,0,0,1-6-5.953A5.979,5.979,0,0,1,183.092-86.183Zm3.654,5.978a3.678,3.678,0,0,0-3.69-3.716,3.709,3.709,0,0,0-3.72,3.734,3.709,3.709,0,0,0,3.722,3.7A3.674,3.674,0,0,0,186.746-80.206Z"
              transform="translate(-284.966 -51.506)"/>
    </g>
</svg>