<svg xmlns="http://www.w3.org/2000/svg" viewBox="0 0 156.6 310"><defs><style>.cls-1{fill:#fff;}</style></defs><title>facebook-icon</title><g id="Layer_2" data-name="Layer 2"><g id="Layer_1-2" data-name="Layer 1"><g id="_Group_" data-name="&lt;Group&gt;"><path id="_Path_" data-name="&lt;Path&gt;" class="cls-1" d="M5,165.11H39V305a5,5,0,0,0,5,5H101.6a5,5,0,0,0,5-5V165.76h39.06a5,5,0,0,0,5-4.42l5.93-51.51a5,5,0,0,0-5-5.57h-45V72c0-9.73,5.24-14.67,15.58-14.67H151.6a5,5,0,0,0,5-5V5a5,5,0,0,0-5-5H111.05c-.29,0-.92,0-1.86,0-7,0-31.49,1.38-50.8,19.15C37,38.84,40,62.42,40.67,66.51v37.75H5a5,5,0,0,0-5,5v50.85A5,5,0,0,0,5,165.11Z"/></g></g></g></svg>