<svg xmlns="http://www.w3.org/2000/svg" width="26" height="28.068" viewBox="0 0 26 28.068">
    <defs>
        <!--<style>.a{stroke:#000;stroke-width:0.5px;}</style>-->
    </defs>
    <path class="a"
          d="M-20.24-98.693v-.429q0-4.049,0-8.1c0-.439,0-.44-.447-.44h-3.861c-.448,0-.449,0-.449.439q0,4.066,0,8.132v.4c-.144.008-.262.019-.38.019q-4,0-7.991,0a1.574,1.574,0,0,1-1.745-1.741q0-7.128,0-14.256a3.309,3.309,0,0,1,1.3-2.73q4.7-3.787,9.383-7.59a2.756,2.756,0,0,1,3.629,0q4.7,3.806,9.409,7.612a3.257,3.257,0,0,1,1.276,2.675q-.009,7.178,0,14.356a1.552,1.552,0,0,1-1.645,1.672c-2.731.008-5.462,0-8.193,0C-20.035-98.671-20.112-98.682-20.24-98.693Zm-5.8-1.022v-.4q0-3.58,0-7.16c0-.994.427-1.415,1.435-1.416h4.029a1.207,1.207,0,0,1,1.384,1.367q0,3.614,0,7.227v.362c.082.009.124.019.167.019q3.643,0,7.285,0c.4,0,.583-.205.583-.648q0-7.194,0-14.388a2.209,2.209,0,0,0-.873-1.8q-4.694-3.791-9.382-7.589a1.713,1.713,0,0,0-2.4-.009q-4.7,3.8-9.408,7.611a2.207,2.207,0,0,0-.858,1.806q0,7.177,0,14.354c0,.491.178.663.67.663q1.712,0,3.425,0Z"
          transform="translate(35.618 126.237)"/>
</svg>