<svg xmlns="http://www.w3.org/2000/svg" width="15.007" height="20.548" viewBox="0 0 15.007 20.548"><defs><style>.a{fill:#006eb6;}</style></defs><g transform="translate(17.848 139.553)"><path class="a" d="M-12.646-.112v1.6h-3.722V12.613H-4.316V1.512H-8.028V-.112h.207q1.834,0,3.667,0A1.3,1.3,0,0,1-2.844,1.334q.005,5.732,0,11.463a1.289,1.289,0,0,1-1.3,1.436q-6.2.006-12.4,0a1.3,1.3,0,0,1-1.3-1.454q0-5.707,0-11.414a1.312,1.312,0,0,1,1.33-1.478q1.822,0,3.645,0Z" transform="translate(0 -133.242)"/><path class="a" d="M55.163-137.229v9.79H53.7v-9.791l-2.676,2.288-.977-1.135a.94.94,0,0,0,.156-.089q1.832-1.568,3.661-3.138a.743.743,0,0,1,1.109,0q1.816,1.552,3.629,3.107c.05.043.1.088.169.151l-.944,1.106Z" transform="translate(-64.876)"/></g></svg>