<svg xmlns="http://www.w3.org/2000/svg" viewBox="0 0 1161.04 2071.05"><defs><style>.cls-1{isolation:isolate;}.cls-2,.cls-7{fill:#b3b2b2;}.cls-2{opacity:0.25;}.cls-3{fill:#0ca64b;}.cls-3,.cls-4,.cls-5,.cls-6,.cls-7{mix-blend-mode:multiply;}.cls-4{fill:#0c79be;}.cls-5{fill:#c11729;}.cls-6{fill:#f9b224;}.cls-7{opacity:0.43;}</style></defs><title>BR_1019_APP BACKGROUND</title><g class="cls-1"><g id="BASE"><rect class="cls-2" x="52.01" width="1080" height="1920"/></g><g id="IMAGE"><path class="cls-3" d="M541,1951.18c-248.18.67-449.9-200-450.6-448.08s199.9-449.94,448.08-450.64,449.92,199.94,450.65,448.12-200,449.89-448.13,450.6Z" transform="translate(52.01)"/></g><g id="TEXTURE"><path class="cls-4" d="M223.78,1289.56a104,104,0,1,1,103.76-104.34,104.06,104.06,0,0,1-103.76,104.34Z" transform="translate(52.01)"/><path class="cls-5" d="M911.29,2071c-109.51.3-198.53-88.25-198.84-197.73s88.21-198.54,197.72-198.85,198.54,88.23,198.86,197.74S1020.79,2070.73,911.29,2071Z" transform="translate(52.01)"/><path class="cls-6" d="M910.94,1304a71.87,71.87,0,1,1,71.67-72.06A71.87,71.87,0,0,1,910.94,1304Z" transform="translate(52.01)"/><path class="cls-7" d="M19.41,923.24a71.22,71.22,0,1,1,71-71.41,71.22,71.22,0,0,1-71,71.41Z" transform="translate(52.01)"/></g></g></svg>