<svg xmlns="http://www.w3.org/2000/svg" width="25" height="25" viewBox="0 0 25 25"><g transform="translate(121.154 197.941)"><path d="M-108.651-172.941a12.51,12.51,0,0,1-12.5-12.489,12.509,12.509,0,0,1,12.5-12.511,12.52,12.52,0,0,1,12.5,12.5A12.523,12.523,0,0,1-108.651-172.941Zm-6.764-4.243a10.62,10.62,0,0,0,14.407-.8,10.6,10.6,0,0,0,.607-14.213Zm13.519-16.524a10.64,10.64,0,0,0-14.654,1.065,10.594,10.594,0,0,0-.367,13.951Z"/><path d="M131.309,108.167c.2-.2.4-.388.6-.585.385-.382.764-.771,1.155-1.146a.354.354,0,0,1,.262-.093,6.345,6.345,0,0,1,3.392,1.721.146.146,0,0,1,.026.035l-1.319,1.318A4.74,4.74,0,0,0,131.309,108.167Z" transform="translate(-241.046 -290.46)"/><path d="M204.7,44.271c.434-.434.886-.89,1.344-1.34a.194.194,0,0,1,.161-.033,9.808,9.808,0,0,1,3.114,2.126L208.04,46.3c-.512-.378-1.016-.806-1.574-1.146S205.3,44.566,204.7,44.271Z" transform="translate(-311.091 -229.903)"/><path d="M269.892-14.283l-1.327,1.327a12.213,12.213,0,0,0-3.08-2.217l1.386-1.389A13.731,13.731,0,0,1,269.892-14.283Z" transform="translate(-369.246 -173.15)"/><path d="M116.571,185.411l-1.815,1.819-1.827-1.843A2.58,2.58,0,0,1,116.571,185.411Z" transform="translate(-223.458 -365.197)"/><path d="M-42.973-53.687c-.533.532-1.026,1.028-1.526,1.515a.281.281,0,0,1-.209.049,11.955,11.955,0,0,0-7.439,1.3A11.933,11.933,0,0,0-54.79-48.9c-.056.053-.113.1-.159.147l-1.321-1.327a13.74,13.74,0,0,1,5.625-3.409A13.874,13.874,0,0,1-42.973-53.687Z" transform="translate(-61.82 -137.306)"/><path d="M1.108,29.381-.218,28.054A10.208,10.208,0,0,1,7.1,25.1c-.074.087-.112.139-.158.185q-.9.9-1.8,1.8a.6.6,0,0,1-.251.158A8.34,8.34,0,0,0,1.139,29.36.168.168,0,0,1,1.108,29.381Z" transform="translate(-115.491 -212.934)"/></g></svg>