<svg xmlns="http://www.w3.org/2000/svg" width="29.714" height="32" viewBox="0 0 29.714 32"><path d="M-123.02-202.736c-.577,0-1.12.01-1.664,0a.921.921,0,0,1-.872-.836.958.958,0,0,1,.6-1.043,1.559,1.559,0,0,1,.5-.069q3.3-.007,6.6,0a.465.465,0,0,0,.47-.268c.538-.94,1.094-1.868,1.641-2.8a2.393,2.393,0,0,1,2.2-1.288c1.887.008,3.774.005,5.661,0a2.361,2.361,0,0,1,2.147,1.241c.576.959,1.154,1.917,1.721,2.882a.409.409,0,0,0,.407.232q3.327-.011,6.654,0a1.391,1.391,0,0,1,.571.112,1.014,1.014,0,0,1,.51,1.105.953.953,0,0,1-.933.776c-.509.009-1.017,0-1.562,0v.407q0,10.982,0,21.964a3.233,3.233,0,0,1-1.009,2.5,2.886,2.886,0,0,1-2.044.776q-9.283,0-18.566,0a3.515,3.515,0,0,1-.481-.037,3.011,3.011,0,0,1-2.555-3.023c-.012-1.762,0-3.525,0-5.287q0-8.465,0-16.93Zm1.867.059v.419q0,10.937,0,21.874c0,.14,0,.282.009.421a1.069,1.069,0,0,0,.817.958,2.4,2.4,0,0,0,.48.036c6.08,0,12.159-.006,18.239.01a1.238,1.238,0,0,0,1.347-1.417q0-10.993,0-21.986v-.315Zm5.837-2.039h9.211c-.429-.725-.826-1.423-1.257-2.1a.619.619,0,0,0-.456-.23q-2.895-.023-5.79,0a.559.559,0,0,0-.418.192C-114.466-206.163-114.876-205.453-115.316-204.716Z" transform="translate(125.565 209.043)"/><path d="M238.6-25.7q0,2.442,0,4.885a.657.657,0,0,1-.878.661.618.618,0,0,1-.433-.56c0-.069,0-.138,0-.207q0-4.771,0-9.543a1.787,1.787,0,0,1,.014-.282.64.64,0,0,1,.7-.548.636.636,0,0,1,.6.635c.007.5,0,1.006,0,1.509Q238.6-27.423,238.6-25.7Z" transform="translate(-217.425 44.869)"/><path d="M29.861-25.706q0-2.443,0-4.886a.647.647,0,0,1,.684-.7.638.638,0,0,1,.608.522,1.324,1.324,0,0,1,.02.244q0,4.82,0,9.64a.7.7,0,0,1-.39.713.649.649,0,0,1-.923-.623Q29.858-23.254,29.861-25.706Z" transform="translate(-21.355 44.872)"/><path d="M134.965-25.706q0,2.405,0,4.81a1.236,1.236,0,0,1-.032.336.649.649,0,0,1-.7.454.652.652,0,0,1-.572-.606c0-.056,0-.113,0-.17q0-4.81,0-9.621a1.179,1.179,0,0,1,.034-.335.639.639,0,0,1,.706-.439.639.639,0,0,1,.562.591c.006.075,0,.151,0,.226Q134.965-28.083,134.965-25.706Z" transform="translate(-119.471 44.858)"/></svg>